RBDS018runT25_grf
version=1
nRows=18
nColumns=19
inDegrees=no
endheader
time	ground_force_r_vx	ground_force_r_vy	ground_force_r_vz	ground_force_r_px	ground_force_r_py	ground_force_r_pz	ground_force_r_mx	ground_force_r_my	ground_force_r_mz	ground_force_l_vx	ground_force_l_vy	ground_force_l_vz	ground_force_l_px	ground_force_l_py	ground_force_l_pz	ground_force_l_mx	ground_force_l_my	ground_force_l_mz
     22.49800000	      0.00000000	      0.00000000	      0.00000000	      0.00000000	      0.00000000	      0.00000000	      0.00000000	      0.00000000	      0.00000000	    133.60728650	    358.05952850	    -18.00841862	      1.79731498	      0.00000000	      1.02312680	     -0.00000000	     -1.91522602	      0.00000000
     22.49900000	      0.00000000	      0.00000000	      0.00000000	      0.00000000	      0.00000000	      0.00000000	      0.00000000	      0.00000000	      0.00000000	    130.34948752	    346.98341033	    -18.19360813	      1.79651103	      0.00000000	      1.02301604	     -0.00000000	     -2.00069427	      0.00000000
     22.50000000	      0.00000000	      0.00000000	      0.00000000	      0.00000000	      0.00000000	      0.00000000	      0.00000000	      0.00000000	      0.00000000	    127.09168853	    335.90729217	    -18.37879765	      1.79570709	      0.00000000	      1.02290529	     -0.00000000	     -2.08616252	      0.00000000
     22.50100000	      0.00000000	      0.00000000	      0.00000000	      0.00000000	      0.00000000	      0.00000000	      0.00000000	      0.00000000	      0.00000000	    123.79365172	    325.45150207	    -18.48172303	      1.79509977	      0.00000000	      1.02273932	     -0.00000000	     -2.16884471	      0.00000000
     22.50200000	      0.00000000	      0.00000000	      0.00000000	      0.00000000	      0.00000000	      0.00000000	      0.00000000	      0.00000000	      0.00000000	    120.49561491	    314.99571198	    -18.58464841	      1.79449245	      0.00000000	      1.02257335	     -0.00000000	     -2.25152691	      0.00000000
     22.50300000	      0.00000000	      0.00000000	      0.00000000	      0.00000000	      0.00000000	      0.00000000	      0.00000000	      0.00000000	      0.00000000	    117.19757811	    304.53992188	    -18.68757379	      1.79388513	      0.00000000	      1.02240738	     -0.00000000	     -2.33420910	      0.00000000
     22.50400000	      0.00000000	      0.00000000	      0.00000000	      0.00000000	      0.00000000	      0.00000000	      0.00000000	      0.00000000	      0.00000000	    113.89819694	    294.51099998	    -18.73883694	      1.79340999	      0.00000000	      1.02220427	     -0.00000000	     -2.41468027	      0.00000000
     22.50500000	      0.00000000	      0.00000000	      0.00000000	      0.00000000	      0.00000000	      0.00000000	      0.00000000	      0.00000000	      0.00000000	    110.59814359	    284.69551217	    -18.76426898	      1.79300094	      0.00000000	      1.02198259	     -0.00000000	     -2.49404594	      0.00000000
     22.50600000	      0.00000000	      0.00000000	      0.00000000	      0.00000000	      0.00000000	      0.00000000	      0.00000000	      0.00000000	      0.00000000	    107.29809024	    274.88002436	    -18.78970101	      1.79259189	      0.00000000	      1.02176090	     -0.00000000	     -2.57341161	      0.00000000
     22.50700000	      0.00000000	      0.00000000	      0.00000000	      0.00000000	      0.00000000	      0.00000000	      0.00000000	      0.00000000	      0.00000000	    104.00970239	    265.28274377	    -18.79129767	      1.79224810	      0.00000000	      1.02152101	     -0.00000000	     -2.65152892	      0.00000000
     22.50800000	      0.00000000	      0.00000000	      0.00000000	      0.00000000	      0.00000000	      0.00000000	      0.00000000	      0.00000000	      0.00000000	    100.74464553	    256.12187760	    -18.74522359	      1.79203483	      0.00000000	      1.02124471	     -0.00000000	     -2.72714950	      0.00000000
     22.50900000	      0.00000000	      0.00000000	      0.00000000	      0.00000000	      0.00000000	      0.00000000	      0.00000000	      0.00000000	      0.00000000	     97.47958868	    246.96101143	    -18.69914951	      1.79182155	      0.00000000	      1.02096841	     -0.00000000	     -2.80277008	      0.00000000
     22.51000000	      0.00000000	      0.00000000	      0.00000000	      0.00000000	      0.00000000	      0.00000000	      0.00000000	      0.00000000	      0.00000000	     94.21453183	    237.80014526	    -18.65307542	      1.79160828	      0.00000000	      1.02069211	     -0.00000000	     -2.87839066	      0.00000000
     22.51100000	      0.00000000	      0.00000000	      0.00000000	      0.00000000	      0.00000000	      0.00000000	      0.00000000	      0.00000000	      0.00000000	     91.01959454	    229.30250116	    -18.54259567	      1.79158390	      0.00000000	      1.02036397	     -0.00000000	     -2.94993823	      0.00000000
     22.51200000	      0.00000000	      0.00000000	      0.00000000	      0.00000000	      0.00000000	      0.00000000	      0.00000000	      0.00000000	      0.00000000	     87.82465726	    220.80485706	    -18.43211592	      1.79155953	      0.00000000	      1.02003583	     -0.00000000	     -3.02148580	      0.00000000
     22.51300000	      0.00000000	      0.00000000	      0.00000000	      0.00000000	      0.00000000	      0.00000000	      0.00000000	      0.00000000	      0.00000000	     84.62971997	    212.30721296	    -18.32163616	      1.79153515	      0.00000000	      1.01970769	     -0.00000000	     -3.09303338	      0.00000000
     22.51400000	      0.00000000	      0.00000000	      0.00000000	      0.00000000	      0.00000000	      0.00000000	      0.00000000	      0.00000000	      0.00000000	     81.50326130	    204.25364610	    -18.17360355	      1.79162916	      0.00000000	      1.01934800	     -0.00000000	     -3.16170991	      0.00000000
     22.51500000	      0.00000000	      0.00000000	      0.00000000	      0.00000000	      0.00000000	      0.00000000	      0.00000000	      0.00000000	      0.00000000	     78.41104194	    196.42211786	    -18.00679451	      1.79178235	      0.00000000	      1.01897253	     -0.00000000	     -3.22895093	      0.00000000
